<svg width="20" height="20" viewBox="0 0 20 20" fill="none" xmlns="http://www.w3.org/2000/svg">
<g id="Info" clip-path="url(#clip0_487_421)">
<path id="Vector" d="M10 0C4.4775 0 0 4.4775 0 10C0 15.5225 4.4775 20 10 20C15.5225 20 20 15.5225 20 10C20 4.4775 15.5225 0 10 0ZM8.75 8.75C8.75 8.41848 8.8817 8.10054 9.11612 7.86612C9.35054 7.6317 9.66848 7.5 10 7.5C10.3315 7.5 10.6495 7.6317 10.8839 7.86612C11.1183 8.10054 11.25 8.41848 11.25 8.75V15C11.25 15.3315 11.1183 15.6495 10.8839 15.8839C10.6495 16.1183 10.3315 16.25 10 16.25C9.66848 16.25 9.35054 16.1183 9.11612 15.8839C8.8817 15.6495 8.75 15.3315 8.75 15V8.75ZM10 6.27C9.83581 6.26996 9.67323 6.23758 9.52155 6.17471C9.36987 6.11183 9.23206 6.0197 9.11599 5.90357C8.99991 5.78744 8.90785 5.64958 8.84505 5.49787C8.78226 5.34616 8.74996 5.18357 8.75 5.01937C8.75004 4.85518 8.78242 4.6926 8.84529 4.54093C8.90817 4.38925 9.0003 4.25144 9.11643 4.13536C9.23256 4.01929 9.37042 3.92723 9.52213 3.86443C9.67384 3.80163 9.83643 3.76933 10.0006 3.76938C10.3322 3.76946 10.6502 3.90127 10.8846 4.1358C11.1191 4.37034 11.2507 4.6884 11.2506 5.02C11.2505 5.3516 11.1187 5.66959 10.8842 5.90401C10.6497 6.13843 10.3316 6.27008 10 6.27Z" fill="black"/>
</g>
<defs>
<clipPath id="clip0_487_421">
<rect width="20" height="20" fill="white"/>
</clipPath>
</defs>
</svg>
